solid OpenSCAD_Model
  facet normal 1 0 0
    outer loop
      vertex 150 -25 -30
      vertex 150 0 -50
      vertex 150 0 -30
    endloop
  endfacet
  facet normal 1 0 0
    outer loop
      vertex 150 0 -50
      vertex 150 -25 -30
      vertex 150 -25 -50
    endloop
  endfacet
  facet normal 0 -1 0
    outer loop
      vertex 0 0 0
      vertex 50 0 -30
      vertex 200 0 0
    endloop
  endfacet
  facet normal 0 -1 0
    outer loop
      vertex 0 0 -50
      vertex 50 0 -30
      vertex 0 0 0
    endloop
  endfacet
  facet normal 0 -1 0
    outer loop
      vertex 50 0 -30
      vertex 0 0 -50
      vertex 50 0 -50
    endloop
  endfacet
  facet normal 0 -1 0
    outer loop
      vertex 150 0 -30
      vertex 200 0 0
      vertex 50 0 -30
    endloop
  endfacet
  facet normal 0 -1 0
    outer loop
      vertex 200 0 -50
      vertex 150 0 -30
      vertex 150 0 -50
    endloop
  endfacet
  facet normal 0 -1 0
    outer loop
      vertex 150 0 -30
      vertex 200 0 -50
      vertex 200 0 0
    endloop
  endfacet
  facet normal 0 -1 0
    outer loop
      vertex 50 -25 -50
      vertex 150 -25 -30
      vertex 50 -25 -30
    endloop
  endfacet
  facet normal 0 -1 0
    outer loop
      vertex 150 -25 -30
      vertex 50 -25 -50
      vertex 150 -25 -50
    endloop
  endfacet
  facet normal -1 0 0
    outer loop
      vertex 50 -25 -50
      vertex 50 0 -30
      vertex 50 0 -50
    endloop
  endfacet
  facet normal -1 0 0
    outer loop
      vertex 50 0 -30
      vertex 50 -25 -50
      vertex 50 -25 -30
    endloop
  endfacet
  facet normal 0 0 -1
    outer loop
      vertex 150 -25 -50
      vertex 50 -25 -50
      vertex 150 0 -50
    endloop
  endfacet
  facet normal 0 0 -1
    outer loop
      vertex 150 0 -50
      vertex 200 5 -50
      vertex 200 0 -50
    endloop
  endfacet
  facet normal 0 0 -1
    outer loop
      vertex 50 0 -50
      vertex 150 0 -50
      vertex 50 -25 -50
    endloop
  endfacet
  facet normal 0 0 -1
    outer loop
      vertex 50 0 -50
      vertex 200 5 -50
      vertex 150 0 -50
    endloop
  endfacet
  facet normal 0 0 -1
    outer loop
      vertex 0 5 -50
      vertex 50 0 -50
      vertex 0 0 -50
    endloop
  endfacet
  facet normal 0 0 -1
    outer loop
      vertex 50 0 -50
      vertex 0 5 -50
      vertex 200 5 -50
    endloop
  endfacet
  facet normal 0 0 1
    outer loop
      vertex 50 0 -30
      vertex 150 -25 -30
      vertex 150 0 -30
    endloop
  endfacet
  facet normal 0 0 1
    outer loop
      vertex 150 -25 -30
      vertex 50 0 -30
      vertex 50 -25 -30
    endloop
  endfacet
  facet normal 1 0 0
    outer loop
      vertex 200 0 0
      vertex 200 5 -50
      vertex 200 5 0
    endloop
  endfacet
  facet normal 1 0 0
    outer loop
      vertex 200 5 -50
      vertex 200 0 0
      vertex 200 0 -50
    endloop
  endfacet
  facet normal 0 1 0
    outer loop
      vertex 200 5 -50
      vertex 0 5 0
      vertex 200 5 0
    endloop
  endfacet
  facet normal 0 1 0
    outer loop
      vertex 0 5 0
      vertex 200 5 -50
      vertex 0 5 -50
    endloop
  endfacet
  facet normal -1 0 0
    outer loop
      vertex 0 0 -50
      vertex 0 5 0
      vertex 0 5 -50
    endloop
  endfacet
  facet normal -1 0 0
    outer loop
      vertex 0 5 0
      vertex 0 0 -50
      vertex 0 0 0
    endloop
  endfacet
  facet normal 0 0 1
    outer loop
      vertex 0 5 0
      vertex 200 0 0
      vertex 200 5 0
    endloop
  endfacet
  facet normal 0 0 1
    outer loop
      vertex 200 0 0
      vertex 0 5 0
      vertex 0 0 0
    endloop
  endfacet
endsolid OpenSCAD_Model
